<svg width="38" height="38" viewBox="0 0 37 38" fill="none" xmlns="http://www.w3.org/2000/svg">
<path d="M18.5 0C8.29921 0 0 8.52351 0 19C0 29.4765 8.29921 38 18.5 38C28.7008 38 37 29.4765 37 19C37 8.52351 28.7008 0 18.5 0ZM14.0333 10.6711C15.1602 9.44428 16.7461 8.76923 18.5 8.76923C20.2539 8.76923 21.8256 9.44885 22.9569 10.682C24.1034 11.9316 24.661 13.6106 24.5294 15.4156C24.2661 19 21.5623 21.9231 18.5 21.9231C15.4377 21.9231 12.7285 19 12.4706 15.4147C12.3399 13.595 12.8966 11.9106 14.0333 10.6711ZM18.5 35.0769C16.4103 35.0783 14.3415 34.6488 12.4165 33.8137C10.4914 32.9786 8.74926 31.755 7.29327 30.2155C8.12716 28.9941 9.18966 27.9557 10.4187 27.1609C12.6858 25.6683 15.5551 24.8462 18.5 24.8462C21.4449 24.8462 24.3142 25.6683 26.5786 27.1609C27.8087 27.9554 28.8721 28.9938 29.7067 30.2155C28.2509 31.7552 26.5087 32.9789 24.5836 33.814C22.6585 34.6491 20.5898 35.0785 18.5 35.0769Z" fill="#3FB0AC"/>
</svg>
