<svg width="31.25" height="34.2" viewBox="0 0 75 71" fill="none" xmlns="http://www.w3.org/2000/svg">
<rect width="75" height="70.2083" rx="14" fill="#0D1520"/>
<path d="M36.0523 22.3391C39.4229 22.3391 42.1739 24.8243 42.3284 27.9438L42.3352 28.2207V29.458C42.3352 30.0073 41.8595 30.4526 41.2727 30.4526C40.7348 30.4526 40.2903 30.0784 40.2199 29.5929L40.2102 29.458V28.2207C40.2102 26.148 38.479 24.4534 36.2966 24.335L36.0523 24.3284H29.146C26.9331 24.3284 25.1231 25.9491 24.9966 27.992L24.9895 28.2207V42.9808C24.9895 45.0533 26.7206 46.748 28.9019 46.8664L29.146 46.8731H36.0665C38.2727 46.8731 40.0771 45.2583 40.2032 43.2232L40.2102 42.9954V41.7448C40.2102 41.1955 40.6859 40.7502 41.2727 40.7502C41.8106 40.7502 42.2551 41.1244 42.3255 41.6098L42.3352 41.7448V42.9954C42.3352 46.14 39.6906 48.7072 36.3701 48.8555L36.0665 48.8623H29.146C25.7766 48.8623 23.0258 46.3769 22.8714 43.2576L22.8645 42.9808V28.2207C22.8645 25.0656 25.519 22.4901 28.8504 22.3455L29.146 22.3391H36.0523ZM47.3786 30.9338L47.498 31.0298L51.646 34.8956C51.6834 34.9303 51.7162 34.9656 51.7462 35.0029L51.646 34.8956C51.6893 34.9359 51.7281 34.9789 51.7624 35.0239C51.7866 35.0554 51.809 35.0887 51.8292 35.1232C51.8329 35.1299 51.8366 35.1365 51.8403 35.1431C51.8582 35.1749 51.8741 35.2079 51.8881 35.2418C51.8938 35.2566 51.8996 35.2716 51.9049 35.2867C51.9153 35.3146 51.924 35.3433 51.9313 35.3725C51.9347 35.3881 51.9381 35.4036 51.9412 35.4191C51.947 35.4463 51.9513 35.4742 51.9542 35.5025C51.9558 35.5222 51.9573 35.5417 51.9581 35.5613C51.9591 35.5744 51.9593 35.5874 51.9593 35.6006L51.9581 35.6381C51.9573 35.6586 51.9558 35.6789 51.9537 35.6993L51.9593 35.6006C51.9593 35.6627 51.9532 35.7235 51.9416 35.7825C51.9382 35.7972 51.9347 35.8127 51.9308 35.8282C51.9237 35.859 51.9146 35.8887 51.9041 35.9179C51.8987 35.9315 51.8934 35.9452 51.8878 35.9588C51.8747 35.9918 51.8594 36.0238 51.8423 36.0548C51.8381 36.0618 51.8336 36.0696 51.8291 36.0774C51.7803 36.1614 51.7192 36.2373 51.6481 36.3039L51.6462 36.3052L47.4982 40.1723C47.0824 40.5599 46.4096 40.5586 45.9956 40.1694C45.6191 39.8155 45.586 39.2629 45.8955 38.8741L45.9986 38.7628L48.3206 36.594L33.8387 36.5952C33.2519 36.5952 32.7762 36.1499 32.7762 35.6006C32.7762 35.097 33.176 34.6809 33.6946 34.615L33.8387 34.606L48.3235 34.6048L45.9988 32.4396C45.6207 32.0872 45.5851 31.5348 45.8928 31.1447L45.9954 31.033C46.3718 30.6791 46.962 30.6457 47.3786 30.9338Z" fill="#FAE596"/>
</svg>
