<svg width="46.5" height="35" viewBox="0 0 93 80" fill="none" xmlns="http://www.w3.org/2000/svg">
<path d="M0 19.2444C0 11.5125 6.26801 5.24445 14 5.24445H93V75.4528H14C6.26801 75.4528 0 69.1848 0 61.4528V19.2444Z" fill="#0D1520"/>
<g filter="url(#filter0_d_1403_1291)">
<rect x="18" y="16.4778" width="50" height="46.8056" rx="10" fill="#3FB0AC"/>
</g>
<path d="M39.6547 27.8078C41.5263 26.4853 44.1495 26.4329 46.0785 27.6505L46.3158 27.8078L55.2891 34.1922C56.2764 34.8724 56.8821 35.8829 56.9853 36.9826L57 37.2461V47.8744C57 50.6138 54.5669 52.8419 51.5179 52.9861H48.5853C47.1838 52.9612 46.0505 51.9913 45.9474 50.7724L45.9326 50.5875V46.8403C45.9326 46.4327 45.5922 46.0932 45.1368 46.0264L45.0042 46.0132H41.068C40.5979 46.0264 40.2147 46.3278 40.1558 46.721L40.1411 46.8403V50.5758C40.1411 50.6531 40.1248 50.7448 40.1116 50.8104L40.0968 50.8379L40.0806 50.9283C39.9053 52.0437 38.8737 52.8944 37.5916 52.9743L37.4 52.9861H34.7621C31.6821 52.9861 29.1621 50.8379 29 48.1366V37.2461C29.0133 36.1307 29.56 35.0952 30.4737 34.3743L39.6547 27.8078ZM45.0337 29.2364C43.9137 28.4369 42.3221 28.3989 41.1432 29.0923L40.9206 29.2364L31.9606 35.6601C31.4463 35.9996 31.1368 36.5108 31.0632 37.0481L31.0469 37.2579V47.8744C31.0469 49.6176 32.5796 51.0463 34.5263 51.1511H37.4C37.7242 51.1511 38.0042 50.9558 38.0469 50.6806L38.0779 50.4447L38.0926 50.3778V46.8403C38.0926 45.4379 39.3011 44.2976 40.8484 44.1914H45.0042C46.5796 44.1914 47.8617 45.2675 47.9811 46.6437V50.5875C47.9811 50.8628 48.2021 51.1 48.4968 51.1511H51.2364C53.2112 51.1511 54.8175 49.8024 54.9354 48.0841L54.9516 47.8744V37.2579C54.9354 36.6956 54.6716 36.17 54.2147 35.7781L54.0232 35.6326L45.0337 29.2364Z" fill="#FAE596"/>
<defs>
<filter id="filter0_d_1403_1291" x="2" y="0.477783" width="82" height="78.8055" filterUnits="userSpaceOnUse" color-interpolation-filters="sRGB">
<feFlood flood-opacity="0" result="BackgroundImageFix"/>
<feColorMatrix in="SourceAlpha" type="matrix" values="0 0 0 0 0 0 0 0 0 0 0 0 0 0 0 0 0 0 127 0" result="hardAlpha"/>
<feMorphology radius="4" operator="erode" in="SourceAlpha" result="effect1_dropShadow_1403_1291"/>
<feOffset/>
<feGaussianBlur stdDeviation="10"/>
<feComposite in2="hardAlpha" operator="out"/>
<feColorMatrix type="matrix" values="0 0 0 0 0.00392157 0 0 0 0 0.647059 0 0 0 0 0.694118 0 0 0 0.54 0"/>
<feBlend mode="normal" in2="BackgroundImageFix" result="effect1_dropShadow_1403_1291"/>
<feBlend mode="normal" in="SourceGraphic" in2="effect1_dropShadow_1403_1291" result="shape"/>
</filter>
</defs>
</svg>
