<svg width="13.5" height="13.5" viewBox="0 0 27 27" fill="none" xmlns="http://www.w3.org/2000/svg">
<path d="M26 13.5C26 6.59896 20.401 1 13.5 1C6.59896 1 1 6.59896 1 13.5C1 20.401 6.59896 26 13.5 26C20.401 26 26 20.401 26 13.5Z" stroke="#FAE596" stroke-width="2" stroke-miterlimit="10"/>
<path d="M11.1667 18.4042L18.1799 14.0814C18.2776 14.0207 18.3584 13.9353 18.4145 13.8335C18.4706 13.7316 18.5 13.6168 18.5 13.5C18.5 13.3832 18.4706 13.2684 18.4145 13.1665C18.3584 13.0647 18.2776 12.9793 18.1799 12.9186L11.1667 8.59582C11.0662 8.53437 10.9515 8.50131 10.8343 8.50004C10.7171 8.49876 10.6017 8.52931 10.4999 8.58856C10.3981 8.6478 10.3136 8.73361 10.2551 8.83717C10.1965 8.94074 10.166 9.05833 10.1667 9.17789V17.8221C10.166 17.9417 10.1965 18.0593 10.2551 18.1628C10.3136 18.2664 10.3981 18.3522 10.4999 18.4114C10.6017 18.4707 10.7171 18.5012 10.8343 18.5C10.9515 18.4987 11.0662 18.4656 11.1667 18.4042Z" fill="#FAE596"/>
</svg>
