<?xml version="1.0" standalone="no"?>
<!DOCTYPE svg PUBLIC "-//W3C//DTD SVG 20010904//EN"
 "http://www.w3.org/TR/2001/REC-SVG-20010904/DTD/svg10.dtd">
<svg version="1.0" xmlns="http://www.w3.org/2000/svg"
 width="46.5" height="35" viewBox="0 0 739.000000 558.000000"
 preserveAspectRatio="xMidYMid meet">

<g transform="translate(0.000000,558.000000) scale(0.100000,-0.100000)"
fill="#000000" stroke="none">
<path d="M0 2790 l0 -2790 3695 0 3695 0 0 2790 0 2790 -3695 0 -3695 0 0
-2790z m4740 1876 c300 -54 539 -277 627 -586 17 -61 18 -130 18 -1255 l0
-1190 -23 -79 c-44 -152 -115 -270 -227 -374 -83 -78 -176 -133 -295 -174
l-95 -33 -1330 0 c-1499 0 -1376 -6 -1550 80 -49 24 -116 65 -147 89 -122 97
-223 254 -270 421 l-23 80 0 1180 0 1180 22 79 c86 302 311 516 608 579 99 22
2568 24 2685 3z"/>
</g>
</svg>
