<svg width="15" height="10.5" viewBox="0 0 30 21" fill="none" xmlns="http://www.w3.org/2000/svg">
<path d="M23.8992 5.17681C23.7178 7.53298 21.8507 9.34806 19.8146 9.34806C17.7784 9.34806 15.9082 7.53356 15.7299 5.17681C15.5443 2.72562 17.3619 1.00555 19.8146 1.00555C22.2672 1.00555 24.0848 2.77023 23.8992 5.17681Z" stroke="#FAE596" stroke-width="2" stroke-linecap="round" stroke-linejoin="round"/>
<path d="M19.8146 13.0558C15.7813 13.0558 11.9028 14.9312 10.9311 18.5833C10.8024 19.0665 11.1261 19.5445 11.6565 19.5445H27.9732C28.5036 19.5445 28.8254 19.0665 28.6986 18.5833C27.7269 14.8727 23.8484 13.0558 19.8146 13.0558Z" stroke="#FAE596" stroke-width="2" stroke-miterlimit="10"/>
<path d="M11.3978 6.21613C11.253 8.09783 9.74417 9.57979 8.11775 9.57979C6.49133 9.57979 4.98003 8.09841 4.83768 6.21613C4.68977 4.25854 6.15837 2.85944 8.11775 2.85944C10.0771 2.85944 11.5457 4.29446 11.3978 6.21613Z" stroke="#FAE596" stroke-width="2" stroke-linecap="round" stroke-linejoin="round"/>
<path d="M11.7691 13.1717C10.652 12.6926 9.42171 12.5084 8.11773 12.5084C4.89955 12.5084 1.79896 14.006 1.02227 16.9229C0.920151 17.3088 1.17884 17.6906 1.60216 17.6906H8.55094" stroke="#FAE596" stroke-width="2" stroke-miterlimit="10" stroke-linecap="round"/>
</svg>
