<svg width="14" height="13.5" viewBox="0 0 28 27" fill="#FAE596" xmlns="http://www.w3.org/2000/svg">
<path d="M10.6547 1.8078C12.5263 0.485317 15.1495 0.432889 17.0785 1.65052L17.3158 1.8078L26.2891 8.19216C27.2764 8.87241 27.8821 9.88295 27.9853 10.9826L28 11.2461V21.8744C28 24.6138 25.5669 26.8419 22.5179 26.9861H19.5853C18.1838 26.9612 17.0505 25.9913 16.9474 24.7724L16.9326 24.5875V20.8403C16.9326 20.4327 16.5922 20.0932 16.1368 20.0264L16.0042 20.0132H12.068C11.5979 20.0264 11.2147 20.3278 11.1558 20.721L11.1411 20.8403V24.5758C11.1411 24.6531 11.1248 24.7448 11.1116 24.8104L11.0968 24.8379L11.0806 24.9283C10.9053 26.0437 9.87368 26.8944 8.59158 26.9743L8.4 26.9861H5.7621C2.68211 26.9861 0.162105 24.8379 0 22.1366V11.2461C0.0132632 10.1307 0.56 9.09522 1.47368 8.37434L10.6547 1.8078ZM16.0337 3.23645C14.9137 2.43693 13.3221 2.39892 12.1432 3.09227L11.9206 3.23645L2.96063 9.66013C2.44632 9.9996 2.13684 10.5108 2.06316 11.0481L2.04695 11.2579V21.8744C2.04695 23.6176 3.57958 25.0463 5.52632 25.1511H8.4C8.72421 25.1511 9.00421 24.9558 9.04695 24.6806L9.07789 24.4447L9.09263 24.3778V20.8403C9.09263 19.4379 10.3011 18.2976 11.8484 18.1914H16.0042C17.5796 18.1914 18.8617 19.2675 18.9811 20.6437V24.5875C18.9811 24.8628 19.2021 25.1 19.4968 25.1511H22.2364C24.2112 25.1511 25.8175 23.8024 25.9354 22.0841L25.9516 21.8744V11.2579C25.9354 10.6956 25.6716 10.17 25.2147 9.77809L25.0232 9.6326L16.0337 3.23645Z" fill="#FAE596"/>
</svg>
