<svg width="14" height="13.5" viewBox="0 0 28 27" fill="none" xmlns="http://www.w3.org/2000/svg">
<path d="M14.7188 2.71483C15.546 2.71452 16.3381 3.0213 16.9147 3.56528C17.4912 4.10927 17.8032 4.84413 17.7781 5.52997L17.788 5.69126C17.8081 5.85011 17.8645 6.00341 17.9559 6.14471C18.1341 6.42334 18.4258 6.62554 18.7666 6.70671C19.1075 6.78789 19.4696 6.74137 19.8125 6.55736L20.0036 6.46684C21.4386 5.84812 23.1596 6.3398 23.9556 7.60678L24.6709 8.74528C24.6898 8.77529 24.7064 8.80631 24.7207 8.83812L24.7871 8.96008C25.4269 10.2125 24.9717 11.7023 23.7562 12.4591L23.456 12.6321C23.2991 12.7325 23.1682 12.8635 23.0698 13.021C22.8922 13.3007 22.8434 13.6339 22.9343 13.9467C23.0253 14.2595 23.2485 14.5261 23.587 14.7056L23.7817 14.8201C24.3701 15.1976 24.7951 15.7539 24.9805 16.3916C25.1897 17.111 25.0776 17.8772 24.6632 18.5293L23.8937 19.7051L23.7777 19.871C22.8735 21.0634 21.1179 21.4278 19.7782 20.7185L19.6194 20.6435C19.4538 20.5756 19.275 20.5382 19.1123 20.5341C18.7584 20.5325 18.4185 20.6608 18.1682 20.8903C17.9179 21.1198 17.7781 21.4316 17.779 21.7941L17.7695 21.9816C17.64 23.4329 16.3152 24.5574 14.7191 24.5574H13.2779C11.5876 24.5574 10.2173 23.3007 10.219 21.8002L10.2091 21.6389C10.1889 21.48 10.1326 21.3267 10.0365 21.1781C9.86225 20.8988 9.57357 20.6948 9.23461 20.6116C8.89566 20.5285 8.53451 20.5729 8.18493 20.7582L7.97723 20.8534C7.32037 21.1243 6.57946 21.1744 5.8852 20.9934C5.10191 20.7892 4.43963 20.3072 4.05315 19.6673L3.30959 18.4898L3.21063 18.3153C2.53351 17.0044 3.06427 15.4286 4.41135 14.7146L4.5342 14.644C4.89407 14.4156 5.10985 14.0389 5.10985 13.6361C5.10985 13.1981 4.85508 12.7934 4.4094 12.5566L4.22857 12.4502C2.92835 11.6209 2.53108 10.0108 3.33655 8.72914L4.09405 7.58754C4.9365 6.24652 6.80348 5.7839 8.23941 6.53915L8.39486 6.61515C8.55332 6.68185 8.72545 6.71726 8.89119 6.71888C9.62199 6.71895 10.2174 6.18073 10.2285 5.49081L10.2384 5.27894C10.2982 4.62296 10.6086 4.00649 11.116 3.53892C11.6884 3.0114 12.4664 2.71483 13.2779 2.71483H14.7188ZM14.7191 4.29595H13.2779C12.9251 4.29595 12.5868 4.42489 12.3379 4.65426C12.1173 4.85755 11.9823 5.1256 11.9587 5.37592L11.943 5.7089C11.8223 7.16075 10.4996 8.30015 8.88215 8.29996C8.4652 8.29599 8.05415 8.21143 7.63498 8.03378L7.41056 7.92522C6.7711 7.58917 5.95573 7.79121 5.57734 8.39308L4.81984 9.53469C4.47274 10.0872 4.64633 10.7908 5.18378 11.1343L5.48795 11.311C6.32563 11.8305 6.83381 12.7001 6.83381 13.6361C6.83381 14.5585 6.33982 15.4207 5.4859 15.962L5.30412 16.0668C4.7058 16.3842 4.4749 17.0698 4.75299 17.6097L4.81866 17.726L5.55278 18.8875C5.72517 19.1728 6.01441 19.3833 6.3565 19.4725C6.6597 19.5515 6.98331 19.5297 7.23577 19.4264L7.3626 19.3694C8.06279 18.9947 8.89716 18.8921 9.68027 19.0843C10.4634 19.2765 11.1303 19.7476 11.5259 20.382C11.7388 20.7109 11.8734 21.077 11.9256 21.4978L11.9491 21.8839C12.0216 22.4982 12.5889 22.9763 13.2779 22.9763H14.7191C15.416 22.9763 15.9949 22.4849 16.0492 21.8829L16.0558 21.7638C16.0519 21.0172 16.3736 20.3002 16.9492 19.7723C17.5248 19.2444 18.3066 18.9494 19.1395 18.9532C19.5482 18.9633 19.9504 19.0473 20.3616 19.2169L20.7302 19.3896C21.3088 19.6226 21.9951 19.4526 22.343 18.9949L22.4275 18.8737L23.1793 17.7246C23.357 17.4449 23.4058 17.1118 23.3148 16.799C23.2342 16.5217 23.0494 16.2798 22.8253 16.1351L22.5076 15.9509C21.9002 15.5744 21.4588 15.0081 21.2686 14.3541C21.0594 13.6347 21.1716 12.8684 21.5771 12.2301C21.7991 11.8747 22.1041 11.5691 22.5019 11.3157L22.6894 11.2074C23.2868 10.8869 23.5175 10.2014 23.2414 9.6595L23.1589 9.51365L23.1441 9.48304L22.4619 8.39618C22.1392 7.88252 21.4677 7.66057 20.8979 7.83593L20.7684 7.8835L20.6481 7.93974C19.9502 8.31681 19.1174 8.42378 18.3334 8.23708C17.5494 8.05039 16.8785 7.58534 16.4711 6.9481C16.2583 6.61923 16.1236 6.25315 16.0715 5.83236L16.0562 5.55708C16.0666 5.22589 15.9303 4.90495 15.6785 4.66737C15.4267 4.42979 15.0808 4.29595 14.7191 4.29595ZM14.0038 10.0668C16.1531 10.0668 17.8955 11.6649 17.8955 13.6361C17.8955 15.6074 16.1531 17.2054 14.0038 17.2054C11.8544 17.2054 10.1121 15.6074 10.1121 13.6361C10.1121 11.6649 11.8544 10.0668 14.0038 10.0668ZM14.0038 11.648C12.8066 11.648 11.836 12.5381 11.836 13.6361C11.836 14.7342 12.8066 15.6243 14.0038 15.6243C15.201 15.6243 16.1716 14.7342 16.1716 13.6361C16.1716 12.5381 15.201 11.648 14.0038 11.648Z" fill="#AABCD0"/>
</svg>
