<svg width="40" height="40" viewBox="0 0 51 51" fill="none" xmlns="http://www.w3.org/2000/svg">
<path d="M49.6359 49.4425C49.7325 49.4214 49.821 49.3731 49.8911 49.3035C49.9612 49.2338 50.01 49.1456 50.0317 49.0493C51.5193 42.624 45.7483 27.893 37.6252 19.9744C36.1874 18.5619 34.6291 17.2773 32.968 16.1351C33.156 13.6596 32.9423 11.1891 31.9965 9.09303C29.3026 3.17941 22.4459 1.5335 19.4996 1.08792C19.3383 1.06257 19.1733 1.07495 19.0177 1.12409C18.862 1.17322 18.7198 1.25778 18.6024 1.37109C18.485 1.48441 18.3955 1.6234 18.3409 1.77713C18.2863 1.93087 18.2682 2.09515 18.288 2.25707L19.4614 11.7928C18.7409 11.8086 18.0217 11.8611 17.3065 11.9499C16.8098 12.0042 16.3478 12.2306 16.0007 12.5897L12.3546 16.3336C12.0043 16.6895 11.7894 17.1565 11.747 17.6538C11.6762 18.3663 11.6417 19.0819 11.6435 19.7979L2.08489 18.8694C1.92245 18.854 1.75862 18.8764 1.60627 18.9348C1.45392 18.9932 1.31718 19.0861 1.20678 19.2061C1.09638 19.3262 1.01532 19.4702 0.969957 19.6268C0.924594 19.7834 0.916159 19.9484 0.945317 20.1088C1.45266 23.0351 3.27098 29.8544 9.25521 32.3819C11.3761 33.2743 13.8415 33.4316 16.3018 33.1887C17.4863 34.8232 18.811 36.3515 20.2609 37.7563C28.3722 45.7003 42.9251 51.0687 49.6359 49.4425ZM29.7171 29.6115C30.4427 28.8678 31.3727 28.3558 32.3895 28.1402C33.4063 27.9247 34.4643 28.0152 35.4296 28.4005C36.3948 28.7857 37.2241 29.4483 37.8124 30.3045C38.4007 31.1606 38.7216 32.1719 38.7346 33.2103C38.7476 34.2488 38.452 35.2677 37.8853 36.1383C37.3185 37.0089 36.5061 37.692 35.5507 38.1012C34.5954 38.5105 33.54 38.6274 32.5181 38.4373C31.4962 38.2472 30.5537 37.7586 29.8099 37.0332C29.3156 36.5523 28.921 35.9787 28.6488 35.3452C28.3766 34.7118 28.2321 34.0309 28.2235 33.3416C28.2149 32.6523 28.3423 31.9681 28.5986 31.328C28.8549 30.688 29.235 30.1047 29.7171 29.6115Z" fill="#FAE596"/>
<path d="M9.45063 16.3069C8.7993 15.6729 8.53567 14.6462 8.30575 13.4093C7.79638 10.6303 10.1725 8.14107 12.9946 8.60617C14.0644 8.78381 15.5679 9.32983 15.9238 9.67692C16.0001 9.75281 16.0984 9.80272 16.2047 9.81958C16.311 9.83644 16.4199 9.81938 16.5159 9.77083C16.612 9.72228 16.6903 9.64471 16.7398 9.54913C16.7892 9.45354 16.8073 9.34482 16.7914 9.23838C16.5814 7.68341 15.8571 6.24339 14.7339 5.14758C11.9423 2.42757 1.7082 2.29528 1.7082 2.29528C1.7082 2.29528 2.0962 12.5272 4.88782 15.2472C6.01065 16.346 7.47075 17.0348 9.03288 17.2027C9.52323 17.2399 9.80755 16.6399 9.45063 16.3069Z" fill="#FBBC05"/>
</svg>
