<svg width="40" height="40" viewBox="0 0 49 49" fill="none" xmlns="http://www.w3.org/2000/svg">
<path d="M48.7422 0.664892C48.7223 0.568069 48.6751 0.478951 48.6064 0.407985C48.5376 0.337019 48.45 0.287145 48.3539 0.264211C41.9478 -1.30348 27.1458 4.28306 19.1263 12.3065C17.696 13.7266 16.392 15.2687 15.2292 16.9155C12.7562 16.6965 10.2832 16.8793 8.17553 17.7989C2.22872 20.4187 0.49729 27.2543 0.0149388 30.1949C-0.012421 30.3558 -0.0021009 30.5209 0.0450872 30.6772C0.0922753 30.8335 0.175045 30.9767 0.286885 31.0955C0.398726 31.2143 0.536588 31.3056 0.689629 31.3621C0.842669 31.4185 1.00671 31.4387 1.16886 31.421L10.7185 30.3667C10.7254 31.0874 10.7688 31.8072 10.8487 32.5234C10.8968 33.0208 11.1173 33.4856 11.4721 33.8371L15.1702 37.5297C15.5217 37.8844 15.9859 38.1051 16.4827 38.1537C17.1943 38.2334 17.9094 38.2769 18.6254 38.284L17.5775 47.8303C17.5601 47.9925 17.5804 48.1566 17.6369 48.3097C17.6934 48.4628 17.7846 48.6007 17.9032 48.7126C18.0219 48.8244 18.1649 48.9073 18.3209 48.9546C18.4769 49.0019 18.6418 49.0124 18.8026 48.9853C21.735 48.5145 28.5765 46.7815 31.1785 40.8293C32.0973 38.7197 32.2854 36.2565 32.0732 33.7933C33.7224 32.6294 35.2672 31.3239 36.69 29.8916C44.7347 21.8802 50.2844 7.39546 48.7422 0.664892ZM28.664 20.3344C27.9294 19.5996 27.429 18.6633 27.2262 17.6439C27.0233 16.6244 27.1271 15.5677 27.5243 14.6073C27.9216 13.6469 28.5945 12.826 29.458 12.2484C30.3214 11.6709 31.3366 11.3626 32.3751 11.3626C33.4136 11.3626 34.4288 11.6709 35.2923 12.2484C36.1557 12.826 36.8286 13.6469 37.2259 14.6073C37.6231 15.5677 37.7269 16.6244 37.5241 17.6439C37.3212 18.6633 36.8208 19.5996 36.0863 20.3344C35.5992 20.8226 35.0207 21.21 34.3839 21.4742C33.7471 21.7385 33.0645 21.8745 32.3751 21.8745C31.6857 21.8745 31.0031 21.7385 30.3664 21.4742C29.7296 21.21 29.1511 20.8226 28.664 20.3344Z" fill="#FAE596"/>
<path d="M15.1073 40.4332C14.4652 41.0766 13.4353 41.3273 12.1956 41.5418C9.41046 42.0164 6.95106 39.6094 7.45138 36.7934C7.64237 35.7258 8.20713 34.2293 8.55864 33.8777C8.63547 33.8024 8.68661 33.7047 8.70479 33.5986C8.72298 33.4926 8.70728 33.3834 8.65993 33.2868C8.61259 33.1901 8.536 33.1109 8.44104 33.0602C8.34609 33.0096 8.23759 32.9902 8.13097 33.0047C6.5735 33.1953 5.12454 33.9015 4.01478 35.0109C1.26012 37.7684 1 48 1 48C1 48 11.236 47.7398 13.9906 44.9824C15.1034 43.8734 15.8104 42.422 15.9978 40.8621C16.0411 40.3723 15.4447 40.0805 15.1073 40.4332Z" fill="#FBBC05"/>
</svg>
