<svg width="26" height="21" viewBox="0 0 26 21" fill="none" xmlns="http://www.w3.org/2000/svg">
<path d="M23.3846 1.2365H2.61538C1.72323 1.2365 1 1.95609 1 2.84376V17.9979C1 18.8856 1.72323 19.6052 2.61538 19.6052H23.3846C24.2768 19.6052 25 18.8856 25 17.9979V2.84376C25 1.95609 24.2768 1.2365 23.3846 1.2365Z" stroke="#FAE596" stroke-width="2" stroke-linejoin="round"/>
<path d="M23.25 15.5233H21.75C20.7835 15.5233 20 16.1629 20 16.952V18.1765C20 18.9656 20.7835 19.6052 21.75 19.6052H23.25C24.2165 19.6052 25 18.9656 25 18.1765V16.952C25 16.1629 24.2165 15.5233 23.25 15.5233Z" stroke="#FAE596" stroke-width="2" stroke-linejoin="round"/>
<path d="M23.25 10.4209H21.75C20.7835 10.4209 20 11.2204 20 12.2067V13.7374C20 14.7237 20.7835 15.5233 21.75 15.5233H23.25C24.2165 15.5233 25 14.7237 25 13.7374V12.2067C25 11.2204 24.2165 10.4209 23.25 10.4209Z" stroke="#FAE596" stroke-width="2" stroke-linejoin="round"/>
<path d="M23.25 6.33892H21.75C20.7835 6.33892 20 6.97856 20 7.7676V8.99218C20 9.78122 20.7835 10.4209 21.75 10.4209H23.25C24.2165 10.4209 25 9.78122 25 8.99218V7.7676C25 6.97856 24.2165 6.33892 23.25 6.33892Z" stroke="#FAE596" stroke-width="2" stroke-linejoin="round"/>
<path d="M23.25 1.2365H21.75C20.7835 1.2365 20 2.03605 20 3.02234V4.55307C20 5.53937 20.7835 6.33892 21.75 6.33892H23.25C24.2165 6.33892 25 5.53937 25 4.55307V3.02234C25 2.03605 24.2165 1.2365 23.25 1.2365Z" stroke="#FAE596" stroke-width="2" stroke-linejoin="round"/>
<path d="M4.25 15.5233H2.75C1.7835 15.5233 1 16.1629 1 16.952V18.1765C1 18.9656 1.7835 19.6052 2.75 19.6052H4.25C5.2165 19.6052 6 18.9656 6 18.1765V16.952C6 16.1629 5.2165 15.5233 4.25 15.5233Z" stroke="#FAE596" stroke-width="2" stroke-linejoin="round"/>
<path d="M4.25 10.4209H2.75C1.7835 10.4209 1 11.2204 1 12.2067V13.7374C1 14.7237 1.7835 15.5233 2.75 15.5233H4.25C5.2165 15.5233 6 14.7237 6 13.7374V12.2067C6 11.2204 5.2165 10.4209 4.25 10.4209Z" stroke="#FAE596" stroke-width="2" stroke-linejoin="round"/>
<path d="M4.25 6.33892H2.75C1.7835 6.33892 1 6.97856 1 7.7676V8.99218C1 9.78122 1.7835 10.4209 2.75 10.4209H4.25C5.2165 10.4209 6 9.78122 6 8.99218V7.7676C6 6.97856 5.2165 6.33892 4.25 6.33892Z" stroke="#FAE596" stroke-width="2" stroke-linejoin="round"/>
<path d="M4.25 1.2365H2.75C1.7835 1.2365 1 2.03605 1 3.02234V4.55307C1 5.53937 1.7835 6.33892 2.75 6.33892H4.25C5.2165 6.33892 6 5.53937 6 4.55307V3.02234C6 2.03605 5.2165 1.2365 4.25 1.2365Z" stroke="#FAE596" stroke-width="2" stroke-linejoin="round"/>
<path d="M18.4688 1.2365H7.53125C6.68556 1.2365 6 1.95609 6 2.84376V8.81359C6 9.70126 6.68556 10.4209 7.53125 10.4209H18.4688C19.3144 10.4209 20 9.70126 20 8.81359V2.84376C20 1.95609 19.3144 1.2365 18.4688 1.2365Z" stroke="#FAE596" stroke-width="2" stroke-linejoin="round"/>
<path d="M18.4688 10.4209H7.53125C6.68556 10.4209 6 11.1404 6 12.0281V17.9979C6 18.8856 6.68556 19.6052 7.53125 19.6052H18.4688C19.3144 19.6052 20 18.8856 20 17.9979V12.0281C20 11.1404 19.3144 10.4209 18.4688 10.4209Z" stroke="#FAE596" stroke-width="2" stroke-linejoin="round"/>
</svg>
