<svg width="12" height="17" viewBox="0 0 12 17" fill="none" xmlns="http://www.w3.org/2000/svg">
<path d="M9.81818 6.48591H9.27273V3.76462C9.27273 2.89854 8.92792 2.06794 8.31417 1.45553C7.70041 0.843117 6.86798 0.499069 6 0.499069C5.13202 0.499069 4.29959 0.843117 3.68583 1.45553C3.07208 2.06794 2.72727 2.89854 2.72727 3.76462V6.48591H2.18182C1.60336 6.48654 1.04877 6.71611 0.639737 7.12424C0.230704 7.53238 0.000631655 8.08575 0 8.66294V14.6498C0.000631655 15.227 0.230704 15.7803 0.639737 16.1885C1.04877 16.5966 1.60336 16.8262 2.18182 16.8268H9.81818C10.3966 16.8262 10.9512 16.5966 11.3603 16.1885C11.7693 15.7803 11.9994 15.227 12 14.6498V8.66294C11.9994 8.08575 11.7693 7.53238 11.3603 7.12424C10.9512 6.71611 10.3966 6.48654 9.81818 6.48591ZM8.18182 6.48591H3.81818V3.76462C3.81818 3.18723 4.04805 2.6335 4.45722 2.22522C4.86639 1.81695 5.42135 1.58759 6 1.58759C6.57865 1.58759 7.13361 1.81695 7.54278 2.22522C7.95195 2.6335 8.18182 3.18723 8.18182 3.76462V6.48591Z" fill="#FAE596"/>
</svg>
