<svg width="16" height="16" viewBox="0 0 16 16" fill="none" xmlns="http://www.w3.org/2000/svg">
<path d="M15.9158 0.217107C15.9093 0.185492 15.8939 0.156392 15.8715 0.13322C15.849 0.110047 15.8204 0.0937616 15.789 0.0862729C13.6972 -0.425626 8.86394 1.39855 6.24533 4.01846C5.77828 4.48216 5.35249 4.98571 4.97281 5.52342C4.1653 5.45192 3.35779 5.51162 2.66956 5.8119C0.727746 6.66733 0.16238 8.89938 0.00487797 9.85955C-0.00405585 9.9121 -0.000686009 9.96601 0.0147224 10.017C0.0301307 10.0681 0.0571574 10.1148 0.0936769 10.1536C0.130196 10.1924 0.175213 10.2222 0.225185 10.2407C0.275157 10.2591 0.328723 10.2657 0.381669 10.2599L3.49993 9.91567C3.50216 10.151 3.51634 10.386 3.54243 10.6199C3.55812 10.7823 3.63015 10.9341 3.74601 11.0489L4.95352 12.2546C5.06831 12.3704 5.21989 12.4425 5.3821 12.4584C5.61445 12.4844 5.84797 12.4986 6.08175 12.5009L5.73961 15.6181C5.7339 15.671 5.74053 15.7246 5.75898 15.7746C5.77743 15.8246 5.8072 15.8696 5.84595 15.9061C5.88471 15.9427 5.93139 15.9697 5.98234 15.9852C6.03329 16.0006 6.08712 16.0041 6.13961 15.9952C7.09713 15.8415 9.33109 15.2756 10.1807 13.332C10.4807 12.6432 10.5422 11.8389 10.4729 11.0346C11.0114 10.6545 11.5158 10.2282 11.9804 9.76053C14.6072 7.14455 16.4194 2.41484 15.9158 0.217107ZM9.35966 6.6398C9.1198 6.39988 8.95641 6.09414 8.89018 5.76127C8.82394 5.42839 8.85782 5.08333 8.98754 4.76973C9.11726 4.45613 9.33699 4.18808 9.61893 3.99949C9.90087 3.8109 10.2324 3.71024 10.5715 3.71024C10.9106 3.71024 11.2421 3.8109 11.524 3.99949C11.8059 4.18808 12.0257 4.45613 12.1554 4.76973C12.2851 5.08333 12.319 5.42839 12.2528 5.76127C12.1865 6.09414 12.0231 6.39988 11.7833 6.6398C11.6242 6.79923 11.4353 6.9257 11.2274 7.012C11.0195 7.09829 10.7966 7.14271 10.5715 7.14271C10.3464 7.14271 10.1235 7.09829 9.91554 7.012C9.70761 6.9257 9.51872 6.79923 9.35966 6.6398Z" fill="#FAE596"/>
<path d="M4.70242 13.4777C4.48839 13.6922 4.14508 13.7758 3.73186 13.8473C2.80349 14.0055 1.98369 13.2031 2.15046 12.2645C2.21412 11.9086 2.40238 11.4098 2.51955 11.2926C2.54516 11.2675 2.5622 11.2349 2.56826 11.1995C2.57433 11.1642 2.56909 11.1278 2.55331 11.0956C2.53753 11.0634 2.512 11.037 2.48035 11.0201C2.4487 11.0032 2.41253 10.9967 2.37699 11.0016C1.85783 11.0651 1.37485 11.3005 1.00493 11.6703C0.0867059 12.5895 0 16 0 16C0 16 3.41199 15.9133 4.33021 14.9941C4.70112 14.6245 4.93679 14.1407 4.99925 13.6207C5.0137 13.4574 4.81491 13.3602 4.70242 13.4777Z" fill="#FBBC05"/>
</svg>
