<svg width="17" height="17" viewBox="0 0 17 17" fill="none" xmlns="http://www.w3.org/2000/svg">
<path d="M16.0846 16.021C16.1164 16.0141 16.1455 15.9982 16.1685 15.9753C16.1915 15.9524 16.2076 15.9235 16.2147 15.8918C16.7036 13.7801 14.8069 8.9386 12.1372 6.33607C11.6647 5.87184 11.1525 5.44964 10.6066 5.07428C10.6684 4.26067 10.5981 3.4487 10.2873 2.75982C9.40192 0.81626 7.14838 0.275317 6.18005 0.128872C6.12705 0.120542 6.07283 0.124611 6.02167 0.14076C5.9705 0.15691 5.92378 0.184698 5.88519 0.221941C5.84659 0.259183 5.81717 0.304864 5.79924 0.35539C5.78131 0.405916 5.77535 0.459909 5.78184 0.513124L6.16751 3.64714C5.93071 3.65234 5.69434 3.66957 5.45929 3.69876C5.29604 3.7166 5.14419 3.791 5.03012 3.90904L3.83179 5.1395C3.71668 5.25648 3.64605 5.40994 3.63211 5.5734C3.60885 5.80757 3.59749 6.04277 3.59809 6.27809L0.456564 5.97293C0.403173 5.96785 0.349331 5.9752 0.29926 5.9944C0.249188 6.0136 0.204247 6.04412 0.167964 6.08358C0.13168 6.12304 0.105038 6.17037 0.0901292 6.22184C0.0752201 6.27331 0.072448 6.32753 0.0820309 6.38025C0.248772 7.342 0.846381 9.58323 2.81315 10.4139C3.51021 10.7072 4.32047 10.7589 5.12909 10.6791C5.51836 11.2163 5.95374 11.7186 6.43028 12.1803C9.09613 14.7911 13.8791 16.5555 16.0846 16.021ZM9.53815 9.50341C9.7766 9.25899 10.0823 9.09071 10.4164 9.01986C10.7506 8.94901 11.0983 8.97877 11.4156 9.10538C11.7328 9.23199 12.0054 9.44976 12.1987 9.73115C12.3921 10.0125 12.4975 10.3449 12.5018 10.6862C12.5061 11.0275 12.4089 11.3624 12.2227 11.6485C12.0364 11.9346 11.7694 12.1591 11.4554 12.2936C11.1414 12.4281 10.7946 12.4666 10.4587 12.4041C10.1229 12.3416 9.81311 12.181 9.56862 11.9426C9.40617 11.7846 9.2765 11.596 9.18704 11.3878C9.09757 11.1797 9.05007 10.9559 9.04724 10.7293C9.04441 10.5028 9.08631 10.2779 9.17054 10.0676C9.25478 9.8572 9.3797 9.66549 9.53815 9.50341Z" fill="#FAE596"/>
<path d="M2.87733 5.13074C2.66326 4.92237 2.57662 4.58494 2.50105 4.17842C2.33364 3.26509 3.11458 2.44696 4.04207 2.59982C4.39369 2.6582 4.88781 2.83766 5.00478 2.95173C5.02987 2.97667 5.06217 2.99308 5.0971 2.99862C5.13204 3.00416 5.16783 2.99855 5.1994 2.9826C5.23097 2.96664 5.25671 2.94115 5.27296 2.90973C5.28922 2.87832 5.29516 2.84258 5.28994 2.8076C5.22091 2.29655 4.98287 1.82327 4.61372 1.46313C3.69623 0.569171 0.332709 0.525693 0.332709 0.525693C0.332709 0.525693 0.460228 3.8885 1.37772 4.78246C1.74675 5.14358 2.22662 5.36997 2.74003 5.42515C2.90119 5.43739 2.99463 5.24019 2.87733 5.13074Z" fill="#FBBC05"/>
</svg>
