<svg width="19" height="17" viewBox="0 0 19 17" fill="none" xmlns="http://www.w3.org/2000/svg">
<path d="M17.3249 0.924198L16.589 0.188255C16.381 -0.0197355 15.997 0.0122736 15.757 0.300219L13.1968 2.84418C12.0448 2.34824 10.7809 2.10824 9.45282 2.10824C5.5007 2.12418 2.07692 4.42815 0.428802 7.74036C0.332774 7.94835 0.332774 8.20428 0.428802 8.38027C1.19673 9.94829 2.34881 11.2443 3.78881 12.2203L1.69282 14.3482C1.45282 14.5882 1.42081 14.9722 1.58085 15.1802L2.3168 15.9162C2.52479 16.1242 2.90877 16.0921 3.14877 15.8042L17.1967 1.75631C17.5007 1.51645 17.5327 1.13248 17.3247 0.924472L17.3249 0.924198ZM10.3008 5.75608C10.0288 5.69207 9.74085 5.61211 9.46883 5.61211C8.10878 5.61211 7.02089 6.70013 7.02089 8.06004C7.02089 8.33205 7.08491 8.62 7.16487 8.89202L6.09275 9.94806C5.7728 9.3881 5.59681 8.764 5.59681 8.06008C5.59681 5.9321 7.30883 4.22008 9.43681 4.22008C10.1409 4.22008 10.7648 4.39606 11.3248 4.71602L10.3008 5.75608Z" fill="white" fill-opacity="0.8"/>
<path d="M18.4769 7.7403C17.917 6.62025 17.1809 5.61232 16.269 4.79629L13.293 7.7403V8.06025C13.293 10.1882 11.5809 11.9003 9.45295 11.9003H9.13299L7.24501 13.7882C7.94907 13.9322 8.68501 14.0282 9.40502 14.0282C13.3571 14.0282 16.7809 11.7243 18.429 8.39612C18.573 8.17205 18.573 7.94814 18.477 7.74013L18.4769 7.7403Z" fill="white" fill-opacity="0.8"/>
</svg>
