<svg width="6" height="6" viewBox="0 0 12 12" fill="none" xmlns="http://www.w3.org/2000/svg">
<path fill-rule="evenodd" clip-rule="evenodd" d="M11.4677 1.98435C11.702 1.75003 11.702 1.37013 11.4677 1.13582C11.2334 0.901504 10.8535 0.901504 10.6192 1.13582L6.1534 5.60162L1.68759 1.13582C1.45328 0.901504 1.07338 0.901504 0.839066 1.13582C0.604751 1.37013 0.604751 1.75003 0.839066 1.98435L5.30487 6.45015L0.839066 10.916C0.604751 11.1503 0.604751 11.5302 0.839066 11.7645C1.07338 11.9988 1.45328 11.9988 1.68759 11.7645L6.1534 7.29868L10.6192 11.7645C10.8535 11.9988 11.2334 11.9988 11.4677 11.7645C11.702 11.5302 11.702 11.1503 11.4677 10.916L7.00193 6.45015L11.4677 1.98435Z" fill="white"/>
</svg>
