<svg width="13" height="14" viewBox="0 0 13 14" fill="none" xmlns="http://www.w3.org/2000/svg">
<path fill-rule="evenodd" clip-rule="evenodd" d="M7.41612 1.46279C7.41612 1.07925 7.10521 0.768341 6.72168 0.768341C6.33815 0.768341 6.02724 1.07925 6.02724 1.46279V6.3239H1.16612C0.782593 6.3239 0.47168 6.63481 0.47168 7.01834C0.47168 7.40187 0.782593 7.71279 1.16612 7.71279H6.02724V12.5739C6.02724 12.9574 6.33815 13.2683 6.72168 13.2683C7.10521 13.2683 7.41612 12.9574 7.41612 12.5739V7.71279H12.2772C12.6608 7.71279 12.9717 7.40187 12.9717 7.01834C12.9717 6.63481 12.6608 6.3239 12.2772 6.3239H7.41612V1.46279Z" fill="#547192"/>
</svg>
